<?xml version="1.0" encoding="UTF-8"?>
<svg id="_レイヤー_2" data-name="レイヤー 2" xmlns="http://www.w3.org/2000/svg" viewBox="0 0 24 24">
  <defs>
    <style>
      .cls-1 {
        fill: none;
      }

      .cls-2 {
        fill: #fff;
      }
    </style>
  </defs>
  <g id="_レイヤー_1-2" data-name="レイヤー 1">
    <g>
      <rect class="cls-1" width="24" height="24"/>
      <g>
        <path class="cls-2" d="M9.31,15.51c-.65,0-1.29,0-1.94,0h-.43c-.47,.02-.94-.07-1.34-.22-1.42-.53-2.29-1.8-2.29-3.32,0-.92,.32-1.72,.93-2.36,.63-.67,1.39-1.03,2.32-1.1,.3-.02,.59-.02,.87-.02,.15,0,.29,0,.42,0h1.48c.67,0,1.21-.28,1.51-.79s.3-1.18,0-1.71c-.3-.54-.81-.81-1.51-.81h-2.26c-.54,0-1.04,.05-1.52,.13-1.28,.23-2.41,.8-3.36,1.67-.97,.89-1.63,1.97-1.96,3.21-.39,1.44-.32,2.88,.21,4.29,.37,.99,.99,1.87,1.82,2.62,1.13,1.01,2.52,1.59,4.12,1.72,.4,.03,.8,.04,1.19,.04,.21,0,.43,0,.64,0,.31,0,.61,0,.92,0,.17,0,.35,0,.53-.03,.61-.08,1.06-.44,1.27-1,.22-.59,.15-1.16-.22-1.65-.31-.43-.78-.64-1.42-.64Z"/>
        <path class="cls-2" d="M23.84,10.52c-.26-1.2-.82-2.26-1.66-3.16-1-1.07-2.24-1.76-3.7-2.05-.8-.16-1.6-.15-2.38-.14h-.18c-.15,0-.31,0-.47,0-.35,0-.72-.01-1.08,.02-.84,.08-1.45,.78-1.44,1.65,.01,.89,.62,1.56,1.49,1.63,.35,.03,.7,.02,1.03,.02,.18,0,.36,0,.51,0h0c.18,0,.36,0,.53,0,.42,0,.77,0,1.12,.04,.98,.12,1.84,.63,2.41,1.42,.57,.79,.79,1.77,.59,2.74-.18,.91-.64,1.63-1.37,2.16-.62,.45-1.33,.67-2.18,.67h-.03c-.79,0-1.58,0-2.37,0-.72,0-1.23,.28-1.53,.81-.3,.53-.3,1.21,0,1.72,.29,.5,.82,.78,1.48,.79h.61c.31,.01,.63,.02,.95,.02,.49,0,.99-.01,1.48-.05,1.02-.08,1.98-.36,2.83-.84,1.3-.73,2.27-1.79,2.89-3.14,.62-1.36,.77-2.81,.45-4.29Z"/>
        <path class="cls-2" d="M15,13.65c.32,0,.64,0,.96-.01,.56-.02,1.04-.28,1.32-.72,.3-.48,.34-1.09,.1-1.65-.19-.43-.61-.93-1.56-.93h-4.11s-.91,0-.91,0c-.92,0-1.84-.01-2.76,.01-.57,.01-1.04,.26-1.33,.7-.31,.47-.35,1.09-.11,1.65,.18,.43,.6,.95,1.57,.95h0c1.38,0,2.76,0,4.13,0h2.03c.22,0,.43,0,.65,0Z"/>
      </g>
    </g>
  </g>
</svg>