<svg width="24" height="24" viewBox="0 0 24 24" fill="none" xmlns="http://www.w3.org/2000/svg">
<mask id="mask0_1_28" style="mask-type:alpha" maskUnits="userSpaceOnUse" x="0" y="0" width="24" height="24">
<rect width="24" height="24" fill="#D9D9D9"/>
</mask>
<g mask="url(#mask0_1_28)">
<path d="M23.4985 6.17369C23.2225 5.12914 22.4092 4.3065 21.3766 4.02732C19.505 3.52002 12 3.52002 12 3.52002C12 3.52002 4.49503 3.52002 2.62336 4.02732C1.59077 4.30654 0.777523 5.12914 0.501503 6.17369C0 8.06698 0 12.0172 0 12.0172C0 12.0172 0 15.9673 0.501503 17.8606C0.777523 18.9052 1.59077 19.6935 2.62336 19.9727C4.49503 20.48 12 20.48 12 20.48C12 20.48 19.505 20.48 21.3766 19.9727C22.4092 19.6935 23.2225 18.9052 23.4985 17.8606C24 15.9673 24 12.0172 24 12.0172C24 12.0172 24 8.06698 23.4985 6.17369ZM9.54544 15.6036V8.43069L15.8181 12.0172L9.54544 15.6036Z" fill="white"/>
</g>
</svg>
