<svg width="24" height="24" viewBox="0 0 24 24" fill="none" xmlns="http://www.w3.org/2000/svg">
<mask id="mask0_1_26" style="mask-type:alpha" maskUnits="userSpaceOnUse" x="0" y="0" width="24" height="24">
<rect width="24" height="24" fill="#D9D9D9"/>
</mask>
<g mask="url(#mask0_1_26)">
<path d="M21.5331 7.16804C21.5483 7.37877 21.5483 7.58955 21.5483 7.80028C21.5483 14.2278 16.5991 21.6338 7.55333 21.6338C4.7665 21.6338 2.17768 20.836 0 19.4512C0.395955 19.4963 0.776628 19.5114 1.18782 19.5114C3.48728 19.5114 5.60407 18.7437 7.29444 17.4341C5.13199 17.3889 3.31979 15.989 2.69542 14.0622C3.00001 14.1074 3.30456 14.1375 3.62439 14.1375C4.066 14.1375 4.50766 14.0773 4.9188 13.9719C2.66499 13.5203 0.974582 11.5635 0.974582 9.20018V9.13999C1.62938 9.50126 2.39087 9.72705 3.19792 9.75712C1.87304 8.88404 1.00505 7.39383 1.00505 5.7079C1.00505 4.80475 1.24866 3.97684 1.67508 3.2543C4.09642 6.20465 7.73605 8.13138 11.8172 8.34216C11.7411 7.98089 11.6954 7.60461 11.6954 7.22828C11.6954 4.54884 13.8883 2.36621 16.6142 2.36621C18.0304 2.36621 19.3096 2.95327 20.2081 3.9016C21.3198 3.69087 22.3858 3.28442 23.33 2.72748C22.9644 3.85647 22.1878 4.8048 21.1675 5.40687C22.1574 5.30155 23.1168 5.03054 24 4.65426C23.3301 5.6176 22.4924 6.47557 21.5331 7.16804Z" fill="white"/>
</g>
</svg>
