<svg width="24" height="24" viewBox="0 0 24 24" fill="none" xmlns="http://www.w3.org/2000/svg">
<mask id="mask0_1_24" style="mask-type:alpha" maskUnits="userSpaceOnUse" x="0" y="0" width="24" height="24">
<rect width="24" height="24" fill="#D9D9D9"/>
</mask>
<g mask="url(#mask0_1_24)">
<path d="M22.6479 9.84202C20.5877 9.84696 18.5781 9.20321 16.9029 8.00171V16.3813C16.9024 17.9333 16.4289 19.4482 15.5459 20.7233C14.6629 21.9984 13.4125 22.973 11.9617 23.5168C10.511 24.0606 8.92915 24.1477 7.4277 23.7664C5.92625 23.3851 4.57676 22.5536 3.55968 21.383C2.54261 20.2125 1.90643 18.7587 1.7362 17.2161C1.56598 15.6735 1.86983 14.1156 2.60712 12.7507C3.34441 11.3858 4.48 10.279 5.86205 9.57823C7.2441 8.87746 8.80672 8.61616 10.341 8.82927V13.0439C9.6389 12.8227 8.885 12.8293 8.18692 13.063C7.48885 13.2966 6.88231 13.7453 6.45392 14.345C6.02553 14.9446 5.7972 15.6646 5.80153 16.402C5.80587 17.1395 6.04265 17.8567 6.47806 18.4512C6.91347 19.0458 7.52524 19.4873 8.22601 19.7127C8.92678 19.9381 9.68072 19.9359 10.3801 19.7063C11.0796 19.4768 11.6887 19.0316 12.1206 18.4345C12.5525 17.8374 12.7851 17.1188 12.785 16.3813V0H16.9029C16.9001 0.348435 16.9292 0.696395 16.99 1.03948C17.1331 1.80537 17.4306 2.53396 17.8644 3.18068C18.2981 3.8274 18.859 4.37867 19.5127 4.80075C20.4426 5.41688 21.533 5.74528 22.6479 5.74505V9.84202Z" fill="white"/>
</g>
</svg>
