<svg width="24" height="24" viewBox="0 0 24 24" fill="none" xmlns="http://www.w3.org/2000/svg">
<mask id="mask0_22_193" style="mask-type:alpha" maskUnits="userSpaceOnUse" x="0" y="0" width="24" height="24">
<rect width="24" height="24" fill="#D9D9D9"/>
</mask>
<g mask="url(#mask0_22_193)">
<path d="M22.903 5.87966C23.6858 6.72809 24.0467 7.74058 23.9952 8.95933V18.4468C23.9764 19.6843 23.5639 20.7014 22.753 21.4983C21.9467 22.2952 20.9202 22.7124 19.6827 22.7499H4.31341C3.07358 22.7124 2.05358 22.2905 1.25343 21.4749C0.453841 20.6593 0.0359388 19.5858 0 18.2593V8.95933C0.0359388 7.74058 0.453841 6.72809 1.25343 5.87966C2.05358 5.11326 3.07358 4.69232 4.31341 4.65623H5.69059L4.50232 3.44639C4.23279 3.1778 4.09779 2.83702 4.09779 2.42499C4.09779 2.01249 4.23279 1.67218 4.50232 1.40326C4.77185 1.13444 5.11403 1 5.52653 1C5.93903 1 6.28121 1.13444 6.55309 1.40326L9.989 4.65623H14.114L17.6061 1.40326C17.8921 1.13444 18.2436 1 18.6561 1C19.0686 1 19.4108 1.13444 19.6827 1.40326C19.9499 1.67218 20.0858 2.01249 20.0858 2.42499C20.0858 2.83702 19.9499 3.1778 19.6827 3.44639L18.4968 4.65623H19.8702C21.1077 4.69232 22.1202 5.11326 22.903 5.87966ZM21.0842 9.14683C21.0655 8.69683 20.9108 8.33121 20.5827 8.04527C20.3389 7.75933 19.9264 7.60465 19.5186 7.5859H4.50232C4.05279 7.60465 3.68435 7.75933 3.39701 8.04527C3.1092 8.33121 2.95639 8.69683 2.93858 9.14683V18.2593C2.93858 18.6905 3.09139 19.0561 3.39701 19.3608C3.70263 19.6655 4.07107 19.8202 4.50232 19.8202H19.5186C19.9499 19.8202 20.3155 19.6655 20.6108 19.3608C20.9061 19.0561 21.0655 18.6905 21.0842 18.2593V9.14683ZM8.69526 11.1484C8.99057 11.4437 9.14995 11.8093 9.1687 12.2359V13.7968C9.14995 14.228 8.99526 14.589 8.70932 14.8843C8.4187 15.1796 8.05308 15.3296 7.60308 15.3296C7.15308 15.3296 6.78277 15.1796 6.49684 14.8843C6.2109 14.589 6.05621 14.228 6.03746 13.7968V12.2359C6.05621 11.8093 6.21559 11.4437 6.5109 11.1484C6.80621 10.8531 7.12964 10.6984 7.60308 10.6796C8.03433 10.6984 8.39995 10.8531 8.69526 11.1484ZM17.6718 11.1484C17.9671 11.4437 18.1265 11.8093 18.1452 12.2359V13.7968C18.1265 14.228 17.9718 14.589 17.6858 14.8843C17.3999 15.1796 17.0296 15.3296 16.5796 15.3296C16.1296 15.3296 15.764 15.1796 15.4733 14.8843C15.1452 14.589 15.0327 14.228 15.0187 13.7968V12.2359C15.0327 11.8093 15.1921 11.4437 15.4874 11.1484C15.7827 10.8531 16.1483 10.6984 16.5796 10.6796C17.0108 10.6984 17.3765 10.8531 17.6718 11.1484Z" fill="white"/>
</g>
</svg>
